<?xml version="1.0" encoding="utf-8"?>
<!-- Generator: Adobe Illustrator 19.2.1, SVG Export Plug-In . SVG Version: 6.00 Build 0)  -->
<svg version="1.1" id="layer" xmlns="http://www.w3.org/2000/svg" xmlns:xlink="http://www.w3.org/1999/xlink" x="0px" y="0px"
	 viewBox="0 0 652 652" style="enable-background:new 0 0 652 652;" xml:space="preserve">
<path d="M13,296v-48.2h29.9V126.5H13V75.1h151.2v51.5h-29.9v121.3h29.9V296H13z M308.7,296v-48.2h19.9V198c0-15-10-21.6-24.9-21.6
	c-16.6,0-29.9,11.6-31.6,28.2v1.7v41.5h21.6V296H177.5v-48.2h19.9v-71.4h-19.9v-48.2h93v33.2c1.7-1.7,3.3-3.3,5-5
	c15-18.3,39.9-28.2,63.1-26.6c36.5,0,66.4,15,66.4,54.8v63.1H425V296H308.7z M617.7,198l-64.8,6.6c0-18.3-5-36.5-26.6-36.5
	c-28.2,0-29.9,23.3-29.9,44.9l0,0l0,0c0,23.3,1.7,46.5,29.9,46.5c13.3,1.7,26.6-8.3,28.2-23.3c0-1.7,0-1.7,0-3.3h64.8v5
	c-10,53.2-58.1,61.5-91.4,61.5c-53.2,0-106.3-26.6-106.3-86.4l0,0c0-59.8,53.2-86.4,106.3-86.4C526.3,128.2,611.1,123.2,617.7,198z
	 M667.5,269.4c0,15-11.6,26.6-26.6,26.6c-15,0-26.6-11.6-26.6-26.6s11.6-26.6,26.6-26.6l0,0C655.9,242.8,667.5,254.5,667.5,269.4
	L667.5,269.4z M212.4,317.6c-64.8,0-101.3,43.2-101.3,127.9s36.5,127.9,101.3,127.9s101.3-43.2,101.3-127.9S275.5,317.6,212.4,317.6
	z M212.4,521.9c-23.3,0-28.2-23.3-28.2-76.4s5-76.4,28.2-76.4s28.2,23.3,28.2,76.4S235.6,521.9,212.4,521.9L212.4,521.9z
	 M426.7,317.6c-64.8,0-101.3,43.2-101.3,127.9s36.5,127.9,101.3,127.9S528,530.2,528,445.5S489.8,317.6,426.7,317.6z M426.7,521.9
	c-23.3,0-28.2-23.3-28.2-76.4s5-76.4,28.2-76.4c23.3,0,28.2,23.3,28.2,76.4S449.9,521.9,426.7,521.9L426.7,521.9z M641,317.6
	c-64.8,0-101.3,43.2-101.3,127.9S576.2,573.4,641,573.4s101.3-43.2,101.3-127.9S704.1,317.6,641,317.6z M641,521.9
	c-23.3,0-28.2-23.3-28.2-76.4s5-76.4,28.2-76.4c23.3,0,28.2,23.3,28.2,76.4S664.2,521.9,641,521.9L641,521.9z M81.2,420.6
	C64.5,407.3,44.6,399,23,400.6c-16.6,0-34.9,5-46.5,16.6l5-39.9H86.1v-58.1H-66.7l-16.6,116.3l44.9,23.3
	c11.6-10,24.9-16.6,39.9-16.6c8.3,0,15,3.3,21.6,8.3c8.3,8.3,11.6,19.9,11.6,31.6c0,5,0,10-1.7,13.3c-1.7,15-15,24.9-29.9,23.3
	c-28.2,0-26.6-34.9-19.9-48.2l0,0l-71.4,38.2c5,44.9,51.5,66.4,89.7,66.4c26.6,0,51.5-8.3,69.8-24.9c6.6-6.6,13.3-13.3,18.3-23.3
	c8.3-13.3,11.6-29.9,11.6-44.9C104.4,458.8,96.1,437.2,81.2,420.6z"/>
</svg>
